<svg id="Calque_1" data-name="Calque 1" xmlns="http://www.w3.org/2000/svg" viewBox="0 0 298 34.69"><defs><style>.cls-1{fill:#fff;}</style></defs><title>mmsats300</title><path class="cls-1" d="M9.81,18.37H5.4V16.9H3.94V11H2.47V9.56H1V5.15H12.74V6.62h1.47V11H11.28v7.34ZM8.34,16.9H9.81V9.56h2.93V8.09H3.94V9.56H6.87V16.9Z" transform="translate(-1 -5.15)"/><path class="cls-1" d="M27.42,18.37H17.15V16.9H15.68V5.15H27.42V6.62h1.47V18.37ZM26,16.9h1.46V8.09H24.49V11H21.55V8.09H18.62V16.9h2.93V12.49h2.94V16.9Z" transform="translate(-1 -5.15)"/><path class="cls-1" d="M42.1,18.37H31.83V16.9H30.36V5.15H42.1V6.62h1.47V18.37ZM40.63,16.9H42.1V15.43H36.23V12.49H42.1V11H36.23V9.56H42.1V8.09H33.3V16.9h7.33Z" transform="translate(-1 -5.15)"/><path class="cls-1" d="M15.68,39.85H2.47V38.38H1V26.63H15.68V28.1h1.47V39.85Zm-1.47-1.47h1.47V29.57H3.94v8.81H6.87V31H8.34v7.34h2.94V31h1.46v7.34Z" transform="translate(-1 -5.15)"/><path class="cls-1" d="M30.36,39.85H20.08V38.38H18.62V34H23V32.51H20.08V31H18.62V26.63H30.36V28.1h1.47v4.41H28.89V34h1.47v1.47h1.47v4.41Zm-1.47-1.47h1.47V36.91H27.42V31h2.94V29.57H21.55V31h2.94v5.87H21.55v1.47h7.34Z" transform="translate(-1 -5.15)"/><path class="cls-1" d="M45,39.85H34.76V38.38H33.3V26.63h5.87V28.1h1.47V34H45v1.47h1.47v4.41Zm-1.47-1.47H45V36.91H39.17V29.57H36.23v8.81h7.34Z" transform="translate(-1 -5.15)"/><path class="cls-1" d="M59.72,39.85H49.44V38.38H48V26.63h5.87V28.1h1.47V34h4.4v1.47h1.47v4.41Zm-1.47-1.47h1.47V36.91H53.85V29.57H50.91v8.81h7.34Z" transform="translate(-1 -5.15)"/><path class="cls-1" d="M74.4,39.85H64.12V38.38H62.66V34h4.4V32.51H64.12V31H62.66V26.63H74.4V28.1h1.47v4.41H72.93V34H74.4v1.47h1.47v4.41Zm-1.47-1.47H74.4V36.91H71.46V31H74.4V29.57H65.59V31h2.94v5.87H65.59v1.47h7.34Z" transform="translate(-1 -5.15)"/><path class="cls-1" d="M89.08,39.85H78.8V38.38H77.34V26.63H89.08V28.1h1.47V39.85Zm-1.47-1.47h1.47V29.57H80.27v8.81h7.34Zm-2.94-1.47H83.21V31h2.93v5.87Z" transform="translate(-1 -5.15)"/><path class="cls-1" d="M103.76,39.85H93.48V38.38H92V26.63h11.74V28.1h1.47V39.85Zm-1.47-1.47h1.47V29.57H95v8.81h2.94V31h2.93v7.34Z" transform="translate(-1 -5.15)"/><path class="cls-1" d="M125.78,39.85H115.5V38.38H114V26.63h11.75V28.1h1.47V39.85Zm-1.47-1.47h1.47V32.51h-5.87V31h5.87V29.57H117v5.87h5.87v1.47H117v1.47h7.34Z" transform="translate(-1 -5.15)"/><path class="cls-1" d="M140.46,39.85H130.18V38.38h-1.47V26.63h11.75V28.1h1.47V39.85ZM139,38.38h1.47V29.57h-8.81v8.81h2.94V35.44h2.93v2.94ZM136.05,34h-1.46V31h2.93V34Z" transform="translate(-1 -5.15)"/><path class="cls-1" d="M152.2,39.85h-4.4V38.38h-1.47V32.51h-1.47V31h-1.47V26.63h11.75V28.1h1.47v4.41h-2.94v7.34Zm-1.47-1.47h1.47V31h2.94V29.57h-8.81V31h2.94v7.34Z" transform="translate(-1 -5.15)"/><path class="cls-1" d="M169.82,39.85H159.54V38.38h-1.47V26.63h11.75V28.1h1.47V39.85Zm-1.47-1.47h1.47V32.51H164V31h5.87V29.57H161v5.87h5.87v1.47H161v1.47h7.34Z" transform="translate(-1 -5.15)"/><path class="cls-1" d="M191.84,39.85H181.56V38.38h-1.47V26.63h11.75V28.1h1.46V39.85Zm-1.47-1.47h1.47V29.57H188.9v2.94H186V29.57H183v8.81H186V34h2.93v4.41Z" transform="translate(-1 -5.15)"/><path class="cls-1" d="M206.52,39.85H196.24V38.38h-1.47V26.63h11.75V28.1H208V39.85Zm-1.47-1.47h1.47V29.57h-8.81v8.81h7.34Zm-2.94-1.47h-1.46V31h2.93v5.87Z" transform="translate(-1 -5.15)"/><path class="cls-1" d="M224.13,39.85H210.92V38.38h-1.47V26.63h14.68V28.1h1.47V39.85Zm-1.47-1.47h1.47V29.57H212.39v8.81h2.94V31h1.46v7.34h2.94V31h1.47v7.34Z" transform="translate(-1 -5.15)"/><path class="cls-1" d="M238.81,39.85H228.54V38.38h-1.47V26.63h11.74V28.1h1.47V39.85Zm-1.47-1.47h1.47V36.91h-5.87V34h5.87V32.51h-5.87V31h5.87V29.57H230v8.81h7.33Z" transform="translate(-1 -5.15)"/><path class="cls-1" d="M247.62,39.85h-4.4V38.38h-1.47V26.63h11.74V28.1H255v8.81h-5.87v2.94Zm-1.47-1.47h1.47V35.44h5.87V29.57h-8.8v8.81ZM249.09,34h-1.47V31h2.94V34Z" transform="translate(-1 -5.15)"/><path class="cls-1" d="M268.17,39.85H257.9V38.38h-1.47V26.63h11.74V28.1h1.47V39.85Zm-1.47-1.47h1.47V29.57h-8.81v8.81h2.94V35.44h2.94v2.94ZM263.77,34H262.3V31h2.94V34Z" transform="translate(-1 -5.15)"/><path class="cls-1" d="M282.85,39.85H272.58V38.38h-1.47V26.63h11.74V28.1h1.47V39.85Zm-1.47-1.47h1.47V32.51h-4.4V34h1.47v2.94H277V31h5.87V29.57H274v8.81h7.34Z" transform="translate(-1 -5.15)"/><path class="cls-1" d="M297.53,39.85H287.26V38.38h-1.47V26.63h11.74V28.1H299V39.85Zm-1.47-1.47h1.47V36.91h-5.87V34h5.87V32.51h-5.87V31h5.87V29.57h-8.81v8.81h7.34Z" transform="translate(-1 -5.15)"/></svg>